<svg preserveAspectRatio="none" width="100%" height="100%" overflow="visible" style="display: block;" viewBox="0 0 20 20" fill="none" xmlns="http://www.w3.org/2000/svg">
<g id="iconamoon:arrow-up-2-fill">
<path id="Vector" fill-rule="evenodd" clip-rule="evenodd" d="M14.1667 12.5C14.3315 12.5 14.4925 12.4511 14.6295 12.3595C14.7666 12.2679 14.8733 12.1378 14.9364 11.9855C14.9995 11.8333 15.016 11.6658 14.9838 11.5041C14.9517 11.3425 14.8723 11.194 14.7558 11.0775L10.5892 6.91083C10.4329 6.75461 10.221 6.66684 10 6.66684C9.77903 6.66684 9.56711 6.75461 9.41083 6.91083L5.24417 11.0775C5.12766 11.194 5.04832 11.3425 5.01618 11.5041C4.98404 11.6658 5.00054 11.8333 5.0636 11.9855C5.12666 12.1378 5.23344 12.2679 5.37045 12.3595C5.50746 12.4511 5.66854 12.5 5.83333 12.5H14.1667Z" fill="var(--fill-0, #120F0B)"/>
</g>
</svg>
