<svg preserveAspectRatio="none" width="100%" height="100%" overflow="visible" style="display: block;" viewBox="0 0 43.9906 44.3068" fill="none" xmlns="http://www.w3.org/2000/svg">
<g id="Layer 2">
<path id="Vector" d="M15.6504 0C13.5189 0 11.4352 0.632082 9.66284 1.81632C7.89051 3.00055 6.50915 4.68375 5.69343 6.65306C4.87772 8.62237 4.66429 10.7893 5.08014 12.8799C5.49598 14.9706 6.52243 16.8909 8.02967 18.3981C9.53692 19.9054 11.4573 20.9318 13.5479 21.3477C15.6385 21.7635 17.8054 21.5501 19.7748 20.7344C21.7441 19.9187 23.4273 18.5373 24.6115 16.765C25.7957 14.9926 26.4278 12.9089 26.4278 10.7774C26.4247 7.92 25.2882 5.18054 23.2677 3.16007C21.2473 1.13959 18.5078 0.00311896 15.6504 0ZM20.9062 9.12285L18.6909 10.8949C18.5999 10.9678 18.5327 11.0662 18.498 11.1775C18.4633 11.2888 18.4626 11.408 18.496 11.5197L19.5115 14.904C19.5469 15.0219 19.5441 15.148 19.5037 15.2643C19.4632 15.3805 19.3871 15.4811 19.2861 15.5516C19.1852 15.622 19.0645 15.6589 18.9414 15.6568C18.8183 15.6547 18.699 15.6138 18.6005 15.5399L16.0013 13.5907C15.9001 13.5147 15.777 13.4737 15.6504 13.4737C15.5239 13.4737 15.4008 13.5147 15.2996 13.5907L12.7004 15.54C12.6019 15.6139 12.4826 15.6547 12.3595 15.6568C12.2364 15.6589 12.1157 15.6221 12.0148 15.5516C11.9138 15.4811 11.8377 15.3806 11.7972 15.2643C11.7568 15.148 11.754 15.022 11.7894 14.904L12.8049 11.5197C12.8384 11.408 12.8378 11.2889 12.803 11.1775C12.7683 11.0662 12.7011 10.9678 12.61 10.895L10.3947 9.12285C10.3001 9.04714 10.2313 8.94392 10.1979 8.82744C10.1645 8.71096 10.1681 8.58698 10.2082 8.47264C10.2483 8.35829 10.3229 8.25922 10.4217 8.18911C10.5206 8.11901 10.6387 8.08133 10.7599 8.08128H13.2975C13.412 8.08123 13.5239 8.04763 13.6195 7.98463C13.715 7.92163 13.79 7.832 13.8351 7.72682L15.1129 4.74524C15.158 4.64006 15.233 4.55041 15.3285 4.48742C15.4241 4.42442 15.536 4.39085 15.6504 4.39085C15.7649 4.39085 15.8768 4.42442 15.9724 4.48742C16.0679 4.55041 16.1429 4.64006 16.188 4.74524L17.4658 7.72686C17.5109 7.83203 17.5859 7.92166 17.6815 7.98466C17.777 8.04766 17.8889 8.08126 18.0034 8.08131H20.541C20.6621 8.08137 20.7803 8.11905 20.8791 8.18915C20.9779 8.25926 21.0526 8.35832 21.0927 8.47266C21.1328 8.587 21.1363 8.71097 21.1029 8.82744C21.0695 8.94392 21.0008 9.04714 20.9062 9.12285Z" fill="var(--fill-0, #503D1C)"/>
<path id="Vector_2" d="M39.5998 28.7397C38.7158 28.7371 37.8517 29.0027 37.1219 29.5016C36.3921 30.0005 35.8308 30.7092 35.5123 31.5338C35.108 32.5599 35.108 33.7011 35.5123 34.7271C35.803 35.4711 36.2912 36.1216 36.9243 36.6086C37.5573 37.0957 38.3113 37.4007 39.1049 37.491C39.8985 37.5812 40.7017 37.4533 41.428 37.1208C42.1542 36.7884 42.776 36.2641 43.2264 35.6044C43.6767 34.9448 43.9385 34.1747 43.9836 33.3773C44.0287 32.5798 43.8554 31.7852 43.4823 31.0789C43.1092 30.3727 42.5505 29.7816 41.8663 29.3694C41.1822 28.9572 40.3986 28.7395 39.5998 28.7397ZM39.5998 35.1263C39.2148 35.1257 38.8382 35.0138 38.5152 34.8042C38.1923 34.5946 37.9368 34.2962 37.7794 33.9448C37.6638 33.6889 37.604 33.4113 37.604 33.1305C37.604 32.8497 37.6638 32.5721 37.7794 32.3162C37.9261 31.9886 38.1583 31.7066 38.4518 31.4999C38.7453 31.2932 39.0891 31.1696 39.447 31.142C39.8049 31.1143 40.1636 31.1838 40.4853 31.343C40.807 31.5022 41.0798 31.7452 41.275 32.0464C41.4701 32.3477 41.5804 32.696 41.5942 33.0547C41.6079 33.4134 41.5247 33.7691 41.3532 34.0845C41.1817 34.3998 40.9283 34.663 40.6197 34.8463C40.3111 35.0297 39.9588 35.1264 39.5998 35.1263Z" fill="var(--fill-0, #503D1C)"/>
<path id="Vector_3" d="M39.5998 31.933C39.3587 31.9323 39.1231 32.0047 38.924 32.1408C38.725 32.2768 38.5719 32.4701 38.4851 32.695C38.3748 32.9749 38.3748 33.2861 38.4851 33.5659C38.5643 33.7688 38.6975 33.9462 38.8701 34.0791C39.0428 34.2119 39.2484 34.2951 39.4649 34.3197C39.6813 34.3443 39.9004 34.3094 40.0984 34.2188C40.2965 34.1281 40.4661 33.9851 40.5889 33.8052C40.7117 33.6253 40.7831 33.4153 40.7954 33.1978C40.8077 32.9803 40.7605 32.7636 40.6587 32.571C40.5569 32.3784 40.4046 32.2172 40.218 32.1047C40.0314 31.9923 39.8177 31.9329 39.5998 31.933Z" fill="var(--fill-0, #503D1C)"/>
<path id="Vector_4" d="M37.6033 33.1302C37.6046 33.4109 37.6643 33.6882 37.7787 33.9445C37.635 34.1806 37.4335 34.3763 37.1934 34.5131C36.9532 34.65 36.6822 34.7236 36.4058 34.7269H26.8259C26.4028 34.7281 25.9974 34.8967 25.6983 35.1959C25.3991 35.4951 25.2305 35.9005 25.2293 36.3235V38.7185C25.2293 40.2006 24.6405 41.622 23.5925 42.67C22.5445 43.718 21.1231 44.3068 19.641 44.3068C18.1589 44.3068 16.7375 43.718 15.6895 42.67C14.6415 41.622 14.0527 40.2006 14.0527 38.7185V28.3403C14.0527 27.9168 14.221 27.5107 14.5204 27.2113C14.8198 26.9119 15.2259 26.7437 15.6494 26.7437C16.0728 26.7437 16.479 26.9119 16.7784 27.2113C17.0778 27.5107 17.246 27.9168 17.246 28.3403V38.7185C17.246 39.3537 17.4984 39.9629 17.9475 40.412C18.3966 40.8612 19.0058 41.1135 19.641 41.1135C20.2762 41.1135 20.8854 40.8612 21.3345 40.412C21.7837 39.9629 22.036 39.3537 22.036 38.7185V36.3235C22.0397 35.0543 22.5456 33.8381 23.443 32.9407C24.3405 32.0432 25.5567 31.5373 26.8259 31.5336H36.4058C36.6822 31.5369 36.9532 31.6105 37.1934 31.7474C37.4335 31.8842 37.635 32.0799 37.7787 32.316C37.6643 32.5723 37.6046 32.8496 37.6033 33.1302Z" fill="var(--fill-0, #503D1C)"/>
<path id="Vector_5" d="M7.13827 29.9371C6.01667 29.9374 4.93055 29.544 4.0693 28.8255C3.20805 28.107 2.62631 27.109 2.42551 26.0055L0.0514948 12.9454C-0.032163 12.4852 -0.0137102 12.0123 0.105549 11.56C0.224807 11.1077 0.441961 10.6871 0.741657 10.328C1.04135 9.9689 1.41628 9.68 1.83992 9.48174C2.26357 9.28348 2.72559 9.1807 3.19333 9.18066H6.07011C6.49357 9.18066 6.89968 9.34888 7.19911 9.64831C7.49854 9.94774 7.66676 10.3539 7.66676 10.7773C7.66676 11.2008 7.49854 11.6069 7.19911 11.9063C6.89968 12.2057 6.49357 12.374 6.07011 12.374H3.19333L5.56726 25.4325C5.63395 25.8005 5.82778 26.1334 6.11492 26.3731C6.40206 26.6128 6.76425 26.744 7.13827 26.7438H24.1619C24.536 26.7438 24.8982 26.6124 25.1853 26.3726C25.4724 26.1328 25.6662 25.7998 25.7328 25.4317L28.1068 12.3732L25.2299 12.374C24.8064 12.374 24.4003 12.2057 24.1009 11.9063C23.8015 11.6069 23.6333 11.2008 23.6333 10.7773C23.6333 10.3539 23.8015 9.94774 24.1009 9.64831C24.4003 9.34888 24.8064 9.18066 25.2299 9.18066H28.1067C28.5744 9.1807 29.0365 9.28348 29.4601 9.48174C29.8837 9.68 30.2587 9.9689 30.5584 10.328C30.8581 10.6871 31.0752 11.1077 31.1945 11.56C31.3137 12.0123 31.3322 12.4852 31.2485 12.9454L28.8746 26.0047C28.674 27.1084 28.0923 28.1065 27.231 28.8252C26.3698 29.5438 25.2835 29.9374 24.1618 29.9371H7.13827Z" fill="var(--fill-0, #503D1C)"/>
</g>
</svg>
