<svg preserveAspectRatio="none" width="100%" height="100%" overflow="visible" style="display: block;" viewBox="0 0 54 54" fill="none" xmlns="http://www.w3.org/2000/svg">
<g id="premium_18727355 1" clip-path="url(#clip0_0_158)">
<path id="Vector" fill-rule="evenodd" clip-rule="evenodd" d="M38.2287 43.7339L42.8629 51.8334L36.1662 50.4683L33.9904 57L28.8872 48.0852C32.4495 47.5983 35.6738 46.0363 38.2287 43.7339ZM14.7727 43.7348C17.3273 46.0366 20.5513 47.5979 24.1134 48.085L19.012 57L16.8338 50.4683L10.1371 51.8334L14.7727 43.7348ZM26.5012 14.4443C35.278 14.4443 42.3958 21.6245 42.3958 30.4784C42.3958 39.3346 35.278 46.515 26.5012 46.515C17.722 46.515 10.6042 39.3346 10.6042 30.4784C10.6042 21.6245 17.722 14.4443 26.5012 14.4443ZM26.5012 42.231C32.9164 42.231 38.1515 36.9525 38.1515 30.4784C38.1515 24.0069 32.9164 18.7258 26.5012 18.7258C20.0834 18.7258 14.8509 24.0069 14.8509 30.4784C14.8509 36.9525 20.0834 42.231 26.5012 42.231ZM26.5012 40.499C21.0293 40.499 16.5678 35.9984 16.5678 30.4784C16.5678 24.9606 21.0293 20.4578 26.5012 20.4578C31.971 20.4578 36.4347 24.9606 36.4347 30.4784C36.4347 35.9984 31.971 40.499 26.5012 40.499ZM24.6125 28.5731H21.7073C21.341 28.5731 21.044 28.8727 21.044 29.2423V31.7145C21.044 32.084 21.341 32.3835 21.7073 32.3835H24.6125V35.3144C24.6125 35.6839 24.9095 35.9835 25.2759 35.9835H27.7266C28.0929 35.9835 28.3899 35.6839 28.3899 35.3144V32.3835H31.2951C31.6616 32.3835 31.9585 32.084 31.9585 31.7145V29.2423C31.9585 28.8727 31.6616 28.5731 31.2951 28.5731H28.3899V25.6424C28.3899 25.2727 28.0929 24.9732 27.7266 24.9732H25.2759C24.9095 24.9732 24.6125 25.2727 24.6125 25.6424V28.5731ZM26.5 -3L28.1081 1.99262H33.3119L29.1019 5.0781L30.7099 10.0707L26.5 6.98511L22.2901 10.0707L23.8981 5.0781L19.6881 1.99262H24.8919L26.5 -3ZM44.1881 3.53542L45.7961 8.52792H51L46.7901 11.6135L48.3981 16.6061L44.1881 13.5205L39.9781 16.6061L41.5862 11.6135L37.3762 8.52792H42.58L44.1881 3.53542ZM8.81188 3.53542L10.42 8.52792H15.6238L11.4138 11.6135L13.0219 16.6061L8.81188 13.5205L4.60194 16.6061L6.20993 11.6135L2 8.52792H7.20389L8.81188 3.53542Z" fill="var(--fill-0, #503D1C)"/>
</g>
<defs>
<clipPath id="clip0_0_158">
<rect width="54" height="54" fill="white"/>
</clipPath>
</defs>
</svg>
