<svg preserveAspectRatio="none" width="100%" height="100%" overflow="visible" style="display: block;" viewBox="0 0 16 16" fill="none" xmlns="http://www.w3.org/2000/svg">
<g id="ri:instagram-line">
<path id="Vector" d="M7.99936 6.00016C7.46893 6.00016 6.96022 6.21088 6.58515 6.58595C6.21008 6.96102 5.99936 7.46973 5.99936 8.00016C5.99936 8.5306 6.21008 9.0393 6.58515 9.41438C6.96022 9.78945 7.46893 10.0002 7.99936 10.0002C8.5298 10.0002 9.0385 9.78945 9.41358 9.41438C9.78865 9.0393 9.99936 8.5306 9.99936 8.00016C9.99936 7.46973 9.78865 6.96102 9.41358 6.58595C9.0385 6.21088 8.5298 6.00016 7.99936 6.00016ZM7.99936 4.66683C8.88342 4.66683 9.73127 5.01802 10.3564 5.64314C10.9815 6.26826 11.3327 7.11611 11.3327 8.00016C11.3327 8.88422 10.9815 9.73206 10.3564 10.3572C9.73127 10.9823 8.88342 11.3335 7.99936 11.3335C7.11531 11.3335 6.26746 10.9823 5.64234 10.3572C5.01722 9.73206 4.66603 8.88422 4.66603 8.00016C4.66603 7.11611 5.01722 6.26826 5.64234 5.64314C6.26746 5.01802 7.11531 4.66683 7.99936 4.66683ZM12.3327 4.50016C12.3327 4.72118 12.2449 4.93314 12.0886 5.08942C11.9323 5.2457 11.7204 5.3335 11.4994 5.3335C11.2783 5.3335 11.0664 5.2457 10.9101 5.08942C10.7538 4.93314 10.666 4.72118 10.666 4.50016C10.666 4.27915 10.7538 4.06719 10.9101 3.91091C11.0664 3.75463 11.2783 3.66683 11.4994 3.66683C11.7204 3.66683 11.9323 3.75463 12.0886 3.91091C12.2449 4.06719 12.3327 4.27915 12.3327 4.50016ZM7.99936 2.66683C6.35003 2.66683 6.0807 2.6715 5.31336 2.7055C4.7907 2.73016 4.44003 2.80016 4.1147 2.92683C3.84259 3.02708 3.59651 3.18725 3.3947 3.3955C3.18621 3.59724 3.02581 3.84332 2.92536 4.1155C2.7987 4.44216 2.7287 4.79216 2.7047 5.31416C2.67003 6.05016 2.66536 6.3075 2.66536 8.00016C2.66536 9.65016 2.67003 9.91883 2.70403 10.6862C2.7287 11.2082 2.7987 11.5595 2.9247 11.8842C3.03803 12.1742 3.17136 12.3828 3.3927 12.6042C3.61736 12.8282 3.82603 12.9622 4.1127 13.0728C4.44203 13.2002 4.7927 13.2708 5.3127 13.2948C6.0487 13.3295 6.30603 13.3335 7.9987 13.3335C9.6487 13.3335 9.91736 13.3288 10.6847 13.2948C11.206 13.2702 11.5567 13.2002 11.8827 13.0742C12.1548 12.9739 12.4009 12.8137 12.6027 12.6055C12.8274 12.3815 12.9614 12.1728 13.072 11.8855C13.1987 11.5575 13.2694 11.2068 13.2934 10.6855C13.328 9.95016 13.332 9.69216 13.332 8.00016C13.332 6.35083 13.3274 6.0815 13.2934 5.31416C13.2687 4.79283 13.198 4.44083 13.072 4.1155C12.9718 3.84338 12.8116 3.59731 12.6034 3.3955C12.4016 3.18701 12.1555 3.0266 11.8834 2.92616C11.5567 2.7995 11.206 2.7295 10.6847 2.7055C9.94936 2.67083 9.69203 2.66683 7.9987 2.66683M7.9987 1.3335C9.81003 1.3335 10.036 1.34016 10.7474 1.3735C11.4567 1.40683 11.9407 1.51816 12.3654 1.6835C12.8054 1.85283 13.176 2.08216 13.5467 2.45216C13.8858 2.78532 14.1482 3.18848 14.3154 3.6335C14.48 4.05816 14.592 4.54216 14.6254 5.25216C14.6567 5.96283 14.6654 6.18883 14.6654 8.00016C14.6654 9.8115 14.6587 10.0375 14.6254 10.7482C14.592 11.4588 14.48 11.9415 14.3154 12.3668C14.1482 12.8118 13.8858 13.215 13.5467 13.5482C13.2135 13.8873 12.8104 14.1496 12.3654 14.3168C11.9407 14.4815 11.4567 14.5935 10.7474 14.6268C10.036 14.6582 9.81003 14.6668 7.9987 14.6668C6.18736 14.6668 5.96136 14.6602 5.25003 14.6268C4.5407 14.5935 4.05736 14.4815 3.63203 14.3168C3.18701 14.1496 2.78385 13.8873 2.4507 13.5482C2.11157 13.215 1.84924 12.8118 1.68203 12.3668C1.5167 11.9422 1.40536 11.4582 1.37203 10.7482C1.34003 10.0375 1.33203 9.8115 1.33203 8.00016C1.33203 6.18883 1.3387 5.96283 1.37203 5.25216C1.40536 4.5415 1.5167 4.05883 1.68203 3.6335C1.84924 3.18848 2.11157 2.78532 2.4507 2.45216C2.78385 2.11303 3.18701 1.85071 3.63203 1.6835C4.0567 1.51816 4.54003 1.40683 5.25003 1.3735C5.96203 1.34216 6.18803 1.3335 7.99936 1.3335" fill="var(--fill-0, #503D1C)"/>
</g>
</svg>
