<svg preserveAspectRatio="none" width="100%" height="100%" overflow="visible" style="display: block;" viewBox="0 0 176 32" fill="none" xmlns="http://www.w3.org/2000/svg">
<g id="Stars">
<path id="Star 1" d="M16 0L19.7618 10.8223L31.2169 11.0557L22.0868 17.9777L25.4046 28.9443L16 22.4L6.59544 28.9443L9.91324 17.9777L0.783095 11.0557L12.2382 10.8223L16 0Z" fill="var(--fill-0, #FFD665)"/>
<path id="Star 2" d="M52 0L55.7618 10.8223L67.2169 11.0557L58.0868 17.9777L61.4046 28.9443L52 22.4L42.5954 28.9443L45.9132 17.9777L36.7831 11.0557L48.2382 10.8223L52 0Z" fill="var(--fill-0, #FFD665)"/>
<path id="Star 3" d="M88 0L91.7618 10.8223L103.217 11.0557L94.0868 17.9777L97.4046 28.9443L88 22.4L78.5954 28.9443L81.9132 17.9777L72.7831 11.0557L84.2382 10.8223L88 0Z" fill="var(--fill-0, #FFD665)"/>
<path id="Star 4" d="M124 0L127.762 10.8223L139.217 11.0557L130.087 17.9777L133.405 28.9443L124 22.4L114.595 28.9443L117.913 17.9777L108.783 11.0557L120.238 10.8223L124 0Z" fill="var(--fill-0, #FFD665)"/>
<path id="Star 5" d="M160 0L163.762 10.8223L175.217 11.0557L166.087 17.9777L169.405 28.9443L160 22.4L150.595 28.9443L153.913 17.9777L144.783 11.0557L156.238 10.8223L160 0Z" fill="var(--fill-0, #FFD665)"/>
</g>
</svg>
