<svg preserveAspectRatio="none" width="100%" height="100%" overflow="visible" style="display: block;" viewBox="0 0 54 54" fill="none" xmlns="http://www.w3.org/2000/svg">
<g id="shield_13193266 1">
<path id="Vector" d="M20.2234 5.90869C15.0124 5.90869 10.7734 10.1567 10.7734 15.3677C10.7734 20.4437 14.8144 26.1227 20.2234 26.1227C25.6324 26.1227 29.6734 20.4437 29.6734 15.3677C29.6734 10.1567 25.4344 5.90869 20.2234 5.90869Z" fill="var(--fill-0, #66533B)"/>
<path id="Vector_2" d="M5.54492 33.6197V42.4308C5.54492 42.9257 5.94993 43.3308 6.44492 43.3308H29.5749C28.0809 41.4587 26.9739 39.2537 26.9739 36.8058V28.5977C26.9739 28.2107 27.0639 27.8327 27.2169 27.4907H24.1209C23.8599 27.4907 23.6079 27.6077 23.4369 27.8147L20.2239 31.6037L17.0109 27.8147C16.8399 27.6077 16.5879 27.4907 16.3179 27.4907H11.6649C8.28991 27.4907 5.54492 30.2447 5.54492 33.6197Z" fill="var(--fill-0, #66533B)"/>
<path id="Vector_3" d="M48.4556 28.6C48.4556 28.2017 48.1734 27.8615 47.7918 27.7868C44.174 27.0649 41.3361 25.8949 39.1124 24.2105C38.8137 23.9865 38.4071 23.9865 38.1084 24.2105C35.8929 25.8949 33.0551 27.0649 29.4373 27.7868C29.0556 27.8615 28.7734 28.2017 28.7734 28.6V36.8064C28.7734 42.5982 36.6231 47.137 38.2162 47.9917C38.3407 48.058 38.4817 48.0913 38.6146 48.0913C38.7556 48.0913 38.9132 48.0498 39.0377 47.9834C40.6059 47.1287 48.4556 42.5899 48.4556 36.8064V28.6ZM43.6795 37.4718C43.6795 37.8551 43.3715 38.1562 42.995 38.1562H40.7021V40.4491C40.7021 40.8256 40.3941 41.1336 40.0177 41.1336H37.2114C36.8349 41.1336 36.5269 40.8256 36.5269 40.4491V38.1562H34.234C33.8575 38.1562 33.5495 37.8551 33.5495 37.4718V34.6655C33.5495 34.289 33.8575 33.981 34.234 33.981H36.5269V31.6949C36.5269 31.3117 36.8349 31.0105 37.2114 31.0105H40.0177C40.3941 31.0105 40.7021 31.3117 40.7021 31.6949V33.981H42.995C43.3715 33.981 43.6795 34.289 43.6795 34.6655V37.4718Z" fill="var(--fill-0, #66533B)"/>
</g>
</svg>
