<svg preserveAspectRatio="none" width="100%" height="100%" overflow="visible" style="display: block;" viewBox="0 0 20 20" fill="none" xmlns="http://www.w3.org/2000/svg">
<g id="tabler:tag-filled">
<path id="Vector" d="M9.30935 1.66675C9.97234 1.66689 10.6081 1.93037 11.0768 2.39925L17.5018 8.82425C18.0346 9.35715 18.334 10.0799 18.334 10.8334C18.334 11.587 18.0346 12.3097 17.5018 12.8426L12.8418 17.5026C12.3089 18.0354 11.5862 18.3347 10.8327 18.3347C10.0791 18.3347 9.35642 18.0354 8.82352 17.5026L2.39852 11.0776C1.92964 10.6089 1.66616 9.97307 1.66602 9.31008V5.00008C1.66602 4.11603 2.01721 3.26818 2.64233 2.64306C3.26745 2.01794 4.11529 1.66675 4.99935 1.66675H9.30935ZM6.24935 4.58341C5.82887 4.58328 5.42388 4.74209 5.11556 5.028C4.80724 5.3139 4.61839 5.70579 4.58685 6.12508L4.58268 6.25008C4.58268 6.57972 4.68043 6.90195 4.86357 7.17603C5.0467 7.45011 5.307 7.66373 5.61154 7.78988C5.91609 7.91603 6.2512 7.94903 6.5745 7.88472C6.8978 7.82042 7.19477 7.66168 7.42786 7.42859C7.66095 7.19551 7.81968 6.89853 7.88399 6.57523C7.9483 6.25193 7.91529 5.91682 7.78915 5.61228C7.663 5.30773 7.44938 5.04743 7.1753 4.8643C6.90122 4.68116 6.57898 4.58341 6.24935 4.58341Z" fill="var(--fill-0, #66533B)"/>
</g>
</svg>
